<svg id="Capa_1" data-name="Capa 1" xmlns="http://www.w3.org/2000/svg" viewBox="0 0 418.9 512.01"><defs><style>.cls-1{fill:#684e2e;}</style></defs><title>bag2</title><path class="cls-1" d="M418.63,473.78l-35.07-320a34.42,34.42,0,0,0-34.26-30.71H322.65v-9.85a113.23,113.23,0,0,0-226.46,0v9.85H69.53a34.42,34.42,0,0,0-34.26,30.71L.2,473.78A34.46,34.46,0,0,0,34.42,512h350a34.34,34.34,0,0,0,5.28-.41h.16l.89-.17.89-.17.61-.15c.38-.09.76-.17,1.14-.28a34.54,34.54,0,0,0,10.79-5l.51-.35a34.44,34.44,0,0,0,14-31.62ZM125.73,113.23a83.69,83.69,0,0,1,167.38,0v9.85H125.73ZM64.64,157a4.92,4.92,0,0,1,4.89-4.39H96.19v44.31a14.77,14.77,0,0,0,29.54,0v-44.3H293.11v44.31a14.77,14.77,0,0,0,29.54,0V152.62h26.66A4.92,4.92,0,0,1,354.2,157l26.49,241.77H38.14ZM388,480.82a4.88,4.88,0,0,1-3.67,1.64H34.42A4.92,4.92,0,0,1,29.57,477l5.34-48.69h349L389.27,477A4.88,4.88,0,0,1,388,480.82Z" transform="translate(0.01 0.01)"/></svg>