<?xml version="1.0" encoding="utf-8"?>
<!-- Generator: Adobe Illustrator 23.0.5, SVG Export Plug-In . SVG Version: 6.00 Build 0)  -->
<svg version="1.1" id="Capa_1" xmlns="http://www.w3.org/2000/svg" xmlns:xlink="http://www.w3.org/1999/xlink" x="0px" y="0px"
	 viewBox="0 0 512 512" style="enable-background:new 0 0 512 512;" xml:space="preserve">
<style type="text/css">
	.st0{fill:#FFFFFF;}
</style>
<g>
	<g>
		<g>
			<path class="st0" d="M0,256c0,141.4,114.6,256,256,256s256-114.6,256-256S397.4,0,256,0S0,114.6,0,256z M480,256
				c0,123.7-100.3,224-224,224S32,379.7,32,256S132.3,32,256,32S480,132.3,480,256z"/>
			<path class="st0" d="M116.8,219.4l128,128c6.2,6.2,16.3,6.2,22.6,0l128-128l-22.7-22.6L256,313.4L139.4,196.8L116.8,219.4z"/>
		</g>
	</g>
</g>
</svg>
