<svg id="Capa_1" data-name="Capa 1" xmlns="http://www.w3.org/2000/svg" viewBox="0 0 384 512"><defs><style>.cls-1{fill:#fff;}</style></defs><title>location</title><path class="cls-1" d="M256,0C150.11,0,64,86.11,64,192c0,133.09,173.31,307.94,180.67,315.33a16.07,16.07,0,0,0,22.66,0C274.69,499.94,448,325.09,448,192,448,86.11,361.89,0,256,0Zm0,472.86C217.79,432,96,293.66,96,192c0-88.22,71.78-160,160-160s160,71.78,160,160C416,293.57,294.21,432,256,472.86Z" transform="translate(-64)"/><path class="cls-1" d="M256,96a96,96,0,1,0,96,96A96.12,96.12,0,0,0,256,96Zm0,160a64,64,0,1,1,64-64A64.06,64.06,0,0,1,256,256Z" transform="translate(-64)"/></svg>