<svg id="Capa_1" data-name="Capa 1" xmlns="http://www.w3.org/2000/svg" viewBox="0 0 512 512"><defs><style>.cls-1{fill:#fff;}</style></defs><title>pencil</title><path class="cls-1" d="M496.06,62.3l-46.4-46.4a54.43,54.43,0,0,0-76.89,0L27.59,361.11A15.28,15.28,0,0,0,23.45,369L.25,494.27a15,15,0,0,0,17.48,17.48L143,488.55a15.28,15.28,0,0,0,7.88-4.14L496.06,139.19A54.34,54.34,0,0,0,496.06,62.3Zm-462.34,416,14-75.78,61.75,61.75Zm106.55-25.69L59.41,371.72,354.62,76.49l80.86,80.86ZM474.85,118l-18.16,18.16L375.83,55.28,394,37.11a24.39,24.39,0,0,1,34.46,0l46.4,46.4A24.36,24.36,0,0,1,474.85,118Z" transform="translate(0 0)"/></svg>