<svg id="Capa_1" data-name="Capa 1" xmlns="http://www.w3.org/2000/svg" viewBox="0 0 511.98 512"><defs><style>.cls-1{fill:#767676;}</style></defs><title>search</title><path class="cls-1" d="M181.34,0C81.35,0,0,81.34,0,181.33S81.35,362.67,181.34,362.67s181.33-81.34,181.33-181.33S281.33,0,181.34,0Zm0,341.33c-88.24,0-160-71.77-160-160s71.76-160,160-160,160,71.76,160,160S269.58,341.33,181.34,341.33Z" transform="translate(-0.01)"/><path class="cls-1" d="M508.87,493.8,309.55,294.48a10.67,10.67,0,1,0-15.08,15.08L493.79,508.89a10.66,10.66,0,1,0,15.08-15.08Z" transform="translate(-0.01)"/></svg>