<svg id="Слой_1" data-name="Слой 1" xmlns="http://www.w3.org/2000/svg" viewBox="0 0 839 175.18"><defs><style>.cls-1{fill:#c5be50}.cls-2{fill:#00bb4d}</style></defs><path class="cls-1" d="M470.83 502.47a32.42 32.42 0 00-7.82-4.71 63 63 0 00-9-3c-3.05-.78-6-1.39-8.77-1.82s-5.15-.76-7-1-3.91-.52-5.9-.85-4.13-.79-6.28-1.34a38.85 38.85 0 01-6.22-2.12 16.29 16.29 0 01-4.94-3.27 7.44 7.44 0 01-2.12-5.48 8.24 8.24 0 011.39-4.77 12.75 12.75 0 013.8-3.52 24.45 24.45 0 017.37-2.65 70 70 0 0114.22-1.09 72.09 72.09 0 0130 6.43l5-11.19a99.43 99.43 0 00-34.77-6.68c-9.6 0-17.61.87-23.79 2.58s-10.81 4.34-14.09 7.89-4.85 8.14-4.85 13.82a18.75 18.75 0 002.11 9.07 21.22 21.22 0 005.7 6.67 36 36 0 008.18 4.73 64.36 64.36 0 009.4 3.13c3.22.81 6.34 1.45 9.27 1.92s5.7.87 8.13 1.18 4.85.71 7.11 1.17a47.94 47.94 0 017 2 21 21 0 016.23 3.51 7.53 7.53 0 012.81 6 8.17 8.17 0 01-2.6 5.61c-1.68 1.75-4.32 3.13-8.08 4.21-3.61 1-8.58 1.58-14.79 1.58-14 0-26.42-2.52-36.94-7.5l-3.32 12.48a107.51 107.51 0 0040 7.28 85.22 85.22 0 0022.17-2.55c6.07-1.66 10.81-4.31 14.08-7.86s4.85-8.14 4.85-13.82a19.55 19.55 0 00-2-9.27 22 22 0 00-5.54-6.77z" transform="translate(-80.5 -412.41)"/><path class="cls-1" d="M414.16 42.97h14.82v87.33h-14.82zm177.56 0h14.82v87.33h-14.82z"/><path class="cls-1" d="M788.69 512.43l-2.11-3c-18.27-26.5-46.35-45.52-79.19-53.66l-.06 87h14.83v-67.5l1.6.68c30.75 13 53.78 36.79 64.83 66.91h14.83v-87.48h-14.73zm-471.22-57.05l-49 86.1a92 92 0 0018.1.71 90.91 90.91 0 0063.08-30.86l1.09-1.23 17.68 32.61h17.9l-49.62-87.33zm25.2 41.22A76.92 76.92 0 01297 526l-2.46.52 32.64-59.87L343.11 496zm233.1-41.22l-49 86.1a92 92 0 0018.1.71A90.91 90.91 0 00608 511.33l1.09-1.23 17.68 32.61h17.9L595 455.38zM601 496.6a76.92 76.92 0 01-45.7 29.4l-2.46.52 32.64-59.87L601.41 496zm303.77 15.83l-2.1-3c-18.28-26.5-46.36-45.52-79.19-53.66l-.06 87h14.82v-67.5l1.6.68c30.75 13 53.78 36.79 64.84 66.91h14.82v-87.48h-14.73z" transform="translate(-80.5 -412.41)"/><path class="cls-2" d="M183.75 521.52a35.62 35.62 0 01-61.29 0h-13.73a48 48 0 0088.75 0z" transform="translate(-80.5 -412.41)"/><path class="cls-1" d="M84.28 468.83a75.2 75.2 0 01136.94 0h3.42v-18.78a87.49 87.49 0 00-144.14.49v18.29zm136.96 62.27a75.19 75.19 0 01-137 0H80.5v18.36a87.49 87.49 0 00144.14.49V531.1z" transform="translate(-80.5 -412.41)"/><path class="cls-2" d="M224.64 494.11l-71-50.94-73.14 52.49v13.94h144.14zm-71-35.78l54.28 38.95H99.37z" transform="translate(-80.5 -412.41)"/></svg>