<svg id="Capa_1" data-name="Capa 1" xmlns="http://www.w3.org/2000/svg" viewBox="0 0 418.83 512"><defs><style>.cls-1{fill:#fff;}</style></defs><title>bag</title><path class="cls-1" d="M465.21,473.78l-35.07-320a34.42,34.42,0,0,0-34.26-30.71H369.23v-9.85a113.23,113.23,0,1,0-226.46,0v9.85H116.11a34.42,34.42,0,0,0-34.26,30.71l-35.07,320A34.46,34.46,0,0,0,81,512H431a34.34,34.34,0,0,0,5.28-.41l.16,0,.89-.17.89-.17.61-.15c.38-.09.76-.17,1.14-.28a34.54,34.54,0,0,0,10.79-5.05l.51-.35a34.44,34.44,0,0,0,14-31.62ZM172.31,113.23a83.69,83.69,0,0,1,167.38,0v9.85H172.31ZM111.22,157a4.92,4.92,0,0,1,4.89-4.39h26.66v44.31a14.77,14.77,0,0,0,29.54,0V152.62H339.69v44.31a14.77,14.77,0,0,0,29.54,0V152.62h26.66a4.92,4.92,0,0,1,4.89,4.39l26.49,241.77H84.72Zm323.4,323.82a4.88,4.88,0,0,1-3.67,1.64H81A4.92,4.92,0,0,1,76.15,477l5.34-48.69h349L435.85,477A4.88,4.88,0,0,1,434.62,480.82Z" transform="translate(-46.58)"/></svg>