<svg id="Слой_1" data-name="Слой 1" xmlns="http://www.w3.org/2000/svg" viewBox="0 0 512 475.86"><defs><style>.cls-1{fill:#fff;}</style></defs><title>hand</title><path class="cls-1" d="M230.37,334.37a10,10,0,1,0-14.15,0A10,10,0,0,0,230.37,334.37Z" transform="translate(0 -18)"/><path class="cls-1" d="M234,99v20a60,60,0,0,0,120,0V99a10,10,0,0,0,0-20H334a10,10,0,0,0,0,20v20a40,40,0,0,1-80,0V99a10,10,0,0,0,0-20H234a10,10,0,0,0,0,20Z" transform="translate(0 -18)"/><path class="cls-1" d="M116.22,490.94a10,10,0,0,0,14.14,0l30.71-30.71a46.29,46.29,0,0,0,13.43-37.52l11-10.63A46.4,46.4,0,0,1,217.85,399H349.51a89.49,89.49,0,0,0,62.77-25.51,9.38,9.38,0,0,0,.71-.77l89.59-107.58a40,40,0,0,0-60.88-51.91l-9.68,10V28a10,10,0,0,0-10-10H165a10,10,0,0,0-10,10V252.05c-38.73,8.13-69.44,32.17-86,67.31a46.18,46.18,0,0,0-35.21,13.57L2.95,363.64a10,10,0,0,0,0,14.16ZM412,38V243.94l-28.94,29.92A40.18,40.18,0,0,0,352,259H236.07a5.52,5.52,0,0,1-2-.43A129.23,129.23,0,0,0,185,249c-3.35,0-6.68.12-10,.34V38ZM166.44,270.32c20.23-2.93,40.46-1.21,60.08,6.79a25.44,25.44,0,0,0,9.55,1.9H352a20,20,0,0,1,0,40H265a10,10,0,0,0,0,20h87a40,40,0,0,0,40-40,40.45,40.45,0,0,0-.36-5.25c2.09-2.14,62.53-64.65,64.63-66.82.15-.16.3-.32.45-.49a20,20,0,1,1,30.52,25.86L398,359.53A69.59,69.59,0,0,1,349.51,379H217.85a66.29,66.29,0,0,0-46.23,18.67l-4.41,4.26a46.55,46.55,0,0,0-6.14-7.57L99.64,332.95a46.7,46.7,0,0,0-11-8.16C103.89,294.66,131.18,275.45,166.44,270.32ZM47.94,347.09a26.52,26.52,0,0,1,37.56,0l61.43,61.43a26.53,26.53,0,0,1,0,37.56l-23.65,23.64-99.11-99Z" transform="translate(0 -18)"/></svg>