<svg id="Слой_1" data-name="Слой 1" xmlns="http://www.w3.org/2000/svg" viewBox="0 0 687.28 389.77"><defs><style>.cls-1{fill:#fff;}</style></defs><title>Листья_Бамбука</title><path class="cls-1" d="M1288.48,500.73c-9.71-3.3-19.3-7.06-29.17-9.78-10.55-2.9-21.37-4.77-32.06-7.17-4.05-.91-8.43-1.36-12-3.26-8.41-4.46-15.66-.21-23.78,1.58,3.83,4.93,7.49,7.75,13.66,8.92,11.9,2.27,23.57,6.3,30.91,17.29,1.56,2.34,3.47,4.69,4.16,7.32,3.15,11.95,11.92,20.06,19.24,29.18a7.29,7.29,0,0,1,1.61,5c-5-2.91-10.24-5.5-15-8.8-16.78-11.68-33.5-23.46-50-35.5-6.72-4.9-12.1-11-11.61-21l-37.34,12.45c18.91,7.89,35.21,17.25,47.5,34.07-8.5-3.13-16.07-5.44-23.23-8.65-13.18-5.9-26.11-12.35-39.18-18.51a3.82,3.82,0,0,0-2.67-.34c-8.9,3.55-17.74,7.22-26.69,10.89,8.95,2.85,17.46,5.31,25.78,8.31,4.5,1.62,8.6,4.3,13,6.29,7.85,3.55,15.78,6.95,23.68,10.4a15.28,15.28,0,0,1,5,3c-24.58-5.66-47.73-16.64-73.43-18.72,24.14,8.25,42.72,25.19,63.17,39.21-27.53-7.82-53.68-18.15-74.1-39.42-5.16,2.51-10.21,4.6-14.86,7.36-3,1.81-1.84,4.58,0,6.85q6.43,7.85,12.91,15.66l-1.09,1.21c-5-4.74-10.5-9.11-15-14.32-3.47-4.05-6.34-6.51-11.51-3.07-1.91,1.27-4.29,1.8-6.37,2.84-5.79,2.89-7.21,5.72-4.12,11.19,6.42,11.35,13.42,22.37,19.52,32.41,26.83-3,51.11,5.18,75.94,3.5l0,1.53-41.87,6.14,52.51,30c-3.36.14-6.3,1-8.71.23-11.68-3.74-23.22-7.92-34.81-12a8,8,0,0,0-4.47-.6c2.24,3.33,4.31,6.79,6.74,10,11.07,14.54,22.27,29,33.33,43.54a6.27,6.27,0,0,1,.83,3.59c0,.42-1.61,1.32-1.73,1.2-.75-.71-1.17-1.78-1.93-2.49-3.12-2.94-6.2-5.93-9.5-8.65-6.38-5.25-13.36-9.85-19.26-15.57-11.8-11.44-23.42-23.12-34.43-35.32-14.54-16.1-27.15-33.61-36.7-53.27-5.82-12-2.39-21.83,9.37-24.79a6.12,6.12,0,0,0,1.59-1l.19-1.63c-2.78-.43-5.65-1.51-8.33-1.16-10.63,1.39-21.15,3.93-31.81,4.71-11.4.84-22.9.18-34.36.19a11.9,11.9,0,0,0-1.39.12c12,7.53,24,15.2,36.12,22.69,6.64,4.1,13.52,7.81,20.13,12,1.59,1,2.53,3,3.07,5.51-1.41-.25-2.83-.45-4.23-.77-2.34-.54-4.56-2.67-7,.09-.58.64-2.59.46-3.74.06-17.13-5.88-34.27-11.74-51.32-17.85-9.14-3.28-15.63-8.81-16.41-19.56-.48-6.48-1.45-6.54-7.41-3.09s-12.09,6.75-18.44,10.28c7.67,8.5,17.35,14.53,23,24.23l-1,1.42-31-19L906,559.19c1.57,2.84,3,5.17,4.18,7.64C913,573,919,575.9,924.62,577.38c16.21,4.29,25.36,15.73,33.66,29,5,8.06,11.57,15.17,17.38,22.75,1,1.3,3.25,2.75.09,4.22l2.05,3.64-.49.67c-9.92-7-20-13.83-29.71-21.21s-18.21-17.11-28.83-22.83-13.84-16-20.73-25.09c-4.42,6.12-8.56,11.83-12.67,17.55-1.94,2.71-3.61,5.64-5.78,8.14-8,9.28-7.43,20.44-7,31.54.06,1.52,1.24,3,2,4.49,8,16,17.29,31.59,23.7,48.24,4.47,11.63,5.1,24.75,7.28,37.23.26,1.48-.51,3.13-1,5.62a35.11,35.11,0,0,1-2.79-3.71c-9.87-18.47-19.65-37-29.55-55.44-8.55-15.93-11.4-32.47-5.9-50a30.54,30.54,0,0,0,.51-4.25c-7.23,6.36-13.64,11.91-19.94,17.58-4.54,4.09-8.92,8.34-13.38,12.52-1.21,1.13-2.48,2.21-3.65,3.38-6.88,6.92-13.45,14.19-20.69,20.71a266,266,0,0,1-25.91,20.25c5.23-8.9,10-18.12,15.81-26.63,10.3-15.09,20.71-30.22,36.07-40.91,1.09-.76,2.09-1.67,3.22-2.36a190.2,190.2,0,0,0,47.77-41.12c3.89-4.71,8.22-9.06,11.91-13.08l-76.36-16.1-.25.5L853.15,554l-14.74,1.17,0,.78,8.62,1.85v1.23H767.13l-.68,1.61c26.11,12,45.86,31.67,64.67,52.44l-.53,1.44-16.37-6.33-.49.85,7.63,4.91c-8.43,2.31-15.13-2.15-21.42-5.63-16.1-8.92-31.75-18.68-47.36-28.46-5-3.15-9.33-7.45-14-11.21-7.39-6-8.46-13.85-6.64-22.56.13-.63.25-1.26.33-1.9,0-.13-.15-.29-1-1.84-11.16,15.34-21.68,30.34-32.77,44.92S675.73,616.1,663.22,630l5.26-10.92-3.89,3.1-1-.65,38.39-68.07-1.25-1.69-78.34,19.86-.35-1.09L634.15,566l-.29-.92-31.7,7.7-.31-.93a12.24,12.24,0,0,1,2.64-1.32c19.63-4.44,38-12.19,55.78-21.39,12.84-6.63,25.57-13.81,40.11-16.09,6.5-1,13.19-.91,20.89-1.38-20-11.23-34.21-27.56-48.94-43.34l.64-1.1a26.89,26.89,0,0,1,3.38,1.78c11,7.89,22.7,14.47,35.93,17.88,4.53,1.17,6.24,4.2,7.3,8.41a101.34,101.34,0,0,0,5.13,15.47c.61,1.39,3.5,1.79,6.18,3-5.15-18.06,5.28-27.89,16.14-37.11,6.58-5.58,14-10.25,21.19-15,2.85-1.86,6.3-2.8,10.36-4.54a25.91,25.91,0,0,1-2.14,3.73Q762.08,497.5,747.61,514c-2.53,2.87-5.74,5.18-8,8.22a7.07,7.07,0,0,0-.78,6c.51,1.2,3.5,2.29,5.06,1.95,15.91-3.45,31.71-7.38,47.63-10.79,9.72-2.08,19.59-3.46,29.9-5.24a27.75,27.75,0,0,0-2.92-4.26c-6.89-6.77-7.51-10.33-2.27-18.14,8.25-12.3,16.7-24.46,25.09-36.66a14.6,14.6,0,0,1,1.91-1.76l-.4,5,1,.42,8.85-16.44c-11.4-2.63-22.33-5.16-33.27-7.67-3.24-.74-6.58-1.18-9.74-2.19-9.22-3-17.55-.45-25.7,3.72-11.39,5.83-22.42,12.61-34.29,17.21-15.78,6.12-32.21,10.57-48.39,15.64a129.8,129.8,0,0,1-13.51,3.56c-2.45.49-5.07.09-7.62.09L679.8,471a68.88,68.88,0,0,1,6.21-3.66c14.66-6.75,29.55-13,44-20.22,11.54-5.76,22.55-12.6,33.79-19l-.16-1.66-114.8-22.86,0-.79,11.91.72.19-1-8.1-1.86v-.84a26,26,0,0,1,4.05-.55c27.65.51,55.33.69,82.72,5.2,11.14,1.83,21.2,6.21,30.78,12.37,4.58,2.95,10.8,3.35,16.27,4.91l1.32-1.44-21.78-52.26,1-.65a66.59,66.59,0,0,1,5.8,6.36q13.07,18.53,25.86,37.26a11.86,11.86,0,0,1,2.37,6c.09,6.34,3.63,8.4,9.26,9,4.11.46,8.76,3.27,12,2,3.05-1.17,4.5-6.35,6.8-9.67q18-25.81,36.05-51.52c.92-1.31,2.86-1.9,4.32-2.83l1.51,1.64L844,414.85l55.64-18.78-1.72,3.5,14.33-6.6.74,1.49c-23.14,14.64-46.5,28.89-72,40.46,6,1.36,12.05,2.79,18.1,4.07,12.82,2.72,25.67,5.27,38.47,8.08,5.88,1.29,10.06.12,13.23-5.59,5.56-10,11.77-19.7,17.73-29.5.57-.93,1.29-1.77,1.94-2.65l1.6.81L914.34,450l48.52,8.09.46-1.17c-.73-.84-1.43-1.7-2.18-2.52-5.91-6.42-6.88-11.15-1.78-18.16a164.84,164.84,0,0,1,18.15-21.08c9.76-9.5,20.21-18.31,30.48-27.28,1.5-1.31,3.64-1.89,5.48-2.81l1,1.47a73.09,73.09,0,0,0-5.27,6.2c-5.06,7.42-9.4,15.4-15,22.33-6.15,7.55-13.43,14.19-20.26,21.19-.92.95-2.09,1.65-3.1,2.52-7.15,6.08-6.24,5.69-2,13.77s11.06,5.62,17.12,6.5c1.28.19,3.22-2,4.37-3.52,2.52-3.23,4.72-6.71,7.05-10.08l1.29.64L993,459.59h40.65c1.55-4.45,2.11-8.76,4.31-11.94,10.74-15.53,23.82-28.54,42.1-36.3a11.84,11.84,0,0,1-.44,1.55c-.2.41-.48.77-1,1.54l4.22-1.59,1,.92-31.33,44.48,4.34.7.05.8c-1.94.3-3.91.46-5.81.93-3.34.83-4.27,3.7-2.21,6.45,4.79,6.38,8.58,7.13,15.85,4.24,10.18-4,20.54-7.6,30.78-12.57l-27,1.58-.09-1.12c5.87-.61,11.8-2,17.61-1.66,13.83.88,26.17-3.43,38.23-9.32a4.7,4.7,0,0,0,1.69-1c4.3-5.53,9.23-10.72,12.67-16.75,6.71-11.75,12.59-24,19.18-36.7l1.14,2.88,4.82-6.8,1.28.44-17.94,48.54c7.89-2.88,14.73-5.18,21.43-7.86,8.18-3.29,16.3-6.76,24.3-10.47a10.07,10.07,0,0,0,4.58-4.65c6.46-14.56,12.66-29.24,19-44.11,2.34,6.72,2.09,13.38.12,20.25s-3.38,13.78-5.26,21.61l22.32-5.72.33,1.32c-6.73,2-13.49,3.93-20.18,6-1.26.4-3.07,1.26-3.34,2.26-2.19,8.13-4.06,16.35-6,24.42l35.6,3.65-.07,2.25c-11.18,1.24-22.35,2.63-33.55,3.64-2.88.26-4,1-4.41,4-.62,4.87-1.58,9.7-2.63,14.5-.71,3.26.79,4.09,3.46,3.38,17.94-4.8,35.85-9.71,53.78-14.54a137.8,137.8,0,0,1,20.77-4.32c-14,9.65-30.46,13-45.92,18.11,18.85,9.75,39.61,15.55,57.68,27Zm-433.15-58.1c-1.69,4-3.27,7.61-4.82,11.27-6.91,16.32-11.32,33.79-22.38,48.2-.68.88-1,3.27-.69,3.48,3.49,2.05,7.33,5.6,10.75,5.29,10.9-1,21.68-3.38,32.46-5.44,1.36-.26,3.27-1.52,3.6-2.69,3.82-13.73,11.52-25.37,19.48-36.87,3.45-5,7.06-9.85,10.93-15.23Zm325.23,18.5.18,1.5c-.93.23-1.84.54-2.78.68-8.87,1.37-17.75,2.64-26.61,4.07-13.09,2.11-26.18,4.22-39.21,6.63-1.45.27-3.19,2.21-3.71,3.74-2.88,8.5-5.44,17.12-8.08,25.7-.47,1.51-.83,3.05-1.36,5a10.53,10.53,0,0,0,2.47-.19c12.52-5,25.3-9.38,37.48-15.06,15.27-7.12,30.46-14.11,47.3-16.7,1-.16,2.62-2.41,2.51-3.56-.55-5.85-3.61-11.49-1.28-17.64.14-.37-2.09-2.42-3.11-2.34q-21.16,1.65-42.27,3.86c-1,.11-2.33,2.12-2.65,3.45-.46,1.88-.12,4-.12,5.75ZM809,538.6c-.24-2.92-1.56-6.51-.43-7.62,3.33-3.28,7.09-6.91,12.49-6.21,9.34,1.21,18.73,2.25,28,4.05,19.93,3.88,37.3,14.31,55.81,22.46l8.3-7.13c-13-9.48-25.42-18.64-38-27.67-2.88-2.07-5.26-4-2.51-8.46-41.55,9.39-83.15,16.32-125.33,26.1,1.79,1.66,2.34,2.55,2.73,2.48C769.89,533.11,789.58,534.77,809,538.6Zm290.85-63.28c-24.61,1.35-47.41,7.24-70.64,15.85,13.39,9.72,26.06,18.34,34.77,31.33.48.72,2.7.83,3.86.44,10.23-3.38,19.35-8,20.85-20.38.21-1.76,1.18-3.45,1.89-5.13C1093.56,490.27,1096.58,483.12,1099.85,475.32Zm-211,30.34a18.65,18.65,0,0,0,1.57,2.66c9.93,9.31,19.83,18.66,29.91,27.8.79.72,3.11.53,4.3-.07,7.55-3.85,14.93-8,22.47-11.89,2.38-1.22,2.81-2.81,3.29-5.35a125,125,0,0,1,5-18c.93-2.67,3.08-4.91,4.67-7.34l-.6-1.33Zm15.32-9.14.74,1.55c15.92-2.33,31.79-5.05,47.77-6.83,7.51-.83,13.34-3,17.1-9.85,1.24-2.27,3.51-4,5.21-6,3.42-4.1,6.77-8.26,10.54-12.87a25.1,25.1,0,0,0-3.42-.93c-8.1-.66-16.21-1.39-24.32-1.79a10,10,0,0,0-5.44,1.65c-5.88,3.74-11.74,7.56-17.34,11.7C924.64,480.8,914.45,488.71,904.18,496.52Zm146.05-23.44c-.37-.39-.82-1.27-1.21-1.24-5.71.44-7.3-4.67-10.54-7.59-1.33-1.2-3.18-2.59-4.79-2.59q-19.71,0-39.41.69a6.9,6.9,0,0,0-4.62,2.71c-4.24,6-8.16,12.12-12.16,18.24a36.09,36.09,0,0,0-1.76,3.77Zm-80.8,43.32,72.11,4.95c.13-.58-.62-.66-1.11-1.06-8.66-7-17.22-14-26-20.82a6.64,6.64,0,0,0-5.5-.77c-7.57,2.95-15,6.23-22.43,9.56C980.81,510.82,975.24,513.63,969.43,516.41Zm171.23-62a45.68,45.68,0,0,0,4.66-.45c10.7-2.31,21.39-4.71,32.1-7,3.09-.66,6.27-.9,9.33-1.65a4.32,4.32,0,0,0,2.82-2.26c1.8-6.33,3.33-12.73,5.15-19.92-2.18.87-3.65,1.44-5.1,2-12.91,5.36-25.66,11.15-38.78,15.92C1144.45,443.43,1142.6,448,1140.67,454.42ZM948.81,458.7c-11.09-2-22-4.1-33-5.86a5,5,0,0,0-4.11,2.17c-4.33,8.42-8.37,17-12.43,25.55a19.1,19.1,0,0,0-.95,3.46Zm15.06,54.68,43.86-20.7-3-8c-9.5,1.45-18.69,2.81-27.86,4.3-1.42.23-3.36.67-4,1.69C968.44,497.59,964.08,504.6,963.87,513.38Zm142.81-53.17-28.78,11.19c6.42,0,12.61-1.38,18.81-1.4C1103.18,470,1105.24,466.37,1106.68,460.21Zm-66.26,21.63-.21-1.52-22.51,3.12.24,1.6C1026.3,490.13,1032.93,483,1040.41,481.84Zm79-22.91c-7.17-1-8.73,1.07-7.64,10.16C1116.48,469.65,1118.2,467.36,1119.43,458.93Z" transform="translate(-601.84 -344.12)"/><path class="cls-1" d="M950.55,705.58l-3.46-5.28-1.66,2.45c-11-16.8-22.27-32.94-32.38-49.78-7.41-12.33-13.61-25.43-19.74-38.48-2-4.19-2.55-9.28-2.75-14-.18-4.27,2.26-5.34,6.26-3.9,5.94,2.14,8.84,6.58,11.35,12.25,4.49,10.14,10.31,19.68,15.08,29.7,3.12,6.54,5.28,13.53,8,20.27,4.39,10.83,8.78,21.67,13.39,32.41,2,4.67,4.57,9.11,6.88,13.66Z" transform="translate(-601.84 -344.12)"/><path class="cls-1" d="M849.37,632.82c4.65,1,10.71,7.5,11,12.79a75.37,75.37,0,0,1-.9,14.69c-1.48,10.92-3.2,21.82-4.93,32.7-1.07,6.72-2.08,13.28-5.37,19.65-2.55,4.93-2.4,11.25-3.49,16.95a13.14,13.14,0,0,1-1.53,4.29C842.58,700,843.8,666.3,849.37,632.82Z" transform="translate(-601.84 -344.12)"/><path class="cls-1" d="M769.26,407c-3.55-2.8-7.74-5.07-10.55-8.48-12.36-15-24.32-30.29-36.41-45.49-2.31-2.9-4.58-5.84-6.58-8.93,2.87,2.62,5.57,5.45,8.63,7.82,6.49,5,13.42,9.49,19.72,14.73,7.38,6.14,14.5,12.62,21.33,19.37,5.6,5.54,3.51,13.27,5.23,19.94Z" transform="translate(-601.84 -344.12)"/></svg>