<svg id="Bold" xmlns="http://www.w3.org/2000/svg" viewBox="0 0 511.99 512.01"><defs><style>.cls-1{fill:#684e2e}</style></defs><path class="cls-1" d="M256.09 124.53A131.37 131.37 0 10387.46 255.9a131.37 131.37 0 00-131.37-131.37zm0 216.64a85.27 85.27 0 1185.27-85.27 85.24 85.24 0 01-85.21 85.27z"/><path class="cls-1" d="M361.56 1.61c-47.1-2.2-163.78-2.09-210.92 0C109.21 3.55 72.66 13.56 43.2 43-6 92.26.26 158.6.26 255.9c0 99.59-5.55 164.4 42.94 212.89 49.43 49.41 116.74 42.94 212.89 42.94 98.65 0 132.69.06 167.57-13.44 47.42-18.41 83.22-60.8 86.72-136.94 2.22-47.13 2.09-163.78 0-210.92C506.15 60.56 457.92 6 361.56 1.61zm74.56 434.6c-32.28 32.28-77.06 29.4-180.65 29.4-106.67 0-149.47 1.58-180.65-29.72-36-35.78-29.44-93.23-29.44-180.33 0-117.87-12.1-202.75 106.2-208.81 27.18-1 35.18-1.28 103.59-1.28l1 .64c113.69 0 202.88-11.9 208.23 106.37 1.22 27 1.49 35.09 1.49 103.4 0 105.43 2 148.46-29.74 180.33z"/><circle class="cls-1" cx="392.67" cy="119.35" r="30.7"/></svg>